<svg width="500" height="500" viewBox="0 0 500 500" fill="none" xmlns="http://www.w3.org/2000/svg">
<g clip-path="url(#clip0)">
<path fill-rule="evenodd" clip-rule="evenodd" d="M79.2199 499.71H419.19C463.82 499.71 500 463.53 500 418.9V80.52C500 35.89 463.82 -0.290039 419.19 -0.290039H79.2199C34.5899 -0.290039 -1.59009 35.89 -1.59009 80.52V418.9C-1.59009 463.53 34.5899 499.71 79.2199 499.71ZM387.13 112.57C387.13 82.28 362.58 57.72 332.28 57.72V57.73H167.71C137.42 57.73 112.86 82.28 112.86 112.58V337.83C112.86 338.94 113.76 339.83 114.86 339.83H165.72C166.83 339.83 167.72 338.93 167.72 337.83V112.57H387.13ZM112.86 386.85H332.26V161.59C332.26 160.48 333.16 159.59 334.26 159.59H385.12C386.23 159.59 387.12 160.49 387.12 161.59V386.85C387.12 417.14 362.57 441.7 332.27 441.7H167.71C137.42 441.7 112.86 417.15 112.86 386.85Z" fill="white"/>
</g>
<defs>
<clipPath id="clip0">
<rect width="500" height="500" fill="white"/>
</clipPath>
</defs>
</svg>
